<?xml version="1.0" standalone="no"?>
<!DOCTYPE svg PUBLIC "-//W3C//DTD SVG 20010904//EN"
 "http://www.w3.org/TR/2001/REC-SVG-20010904/DTD/svg10.dtd">
<svg version="1.0" xmlns="http://www.w3.org/2000/svg"
 width="1024.000000pt" height="1024.000000pt" viewBox="0 0 1024.000000 1024.000000"
 preserveAspectRatio="xMidYMid meet">
<metadata>
Created by potrace 1.16, written by Peter Selinger 2001-2019
</metadata>
<g transform="translate(0.000000,1024.000000) scale(0.100000,-0.100000)"
fill="#000000" stroke="none">
<path d="M4310 9734 c0 -8 151 -109 264 -176 72 -43 123 -79 115 -82 -40 -13
-286 -30 -444 -31 -141 0 -197 4 -260 19 -112 26 -219 68 -314 125 -45 27 -81
44 -81 37 0 -19 83 -158 135 -226 27 -35 81 -96 120 -136 l70 -72 -140 -32
c-193 -44 -355 -94 -452 -140 -46 -21 -83 -41 -83 -43 0 -2 35 -2 78 0 42 3
102 1 132 -4 l55 -8 -90 -62 c-160 -110 -356 -282 -444 -388 -59 -72 -113
-147 -108 -151 2 -2 34 8 71 22 38 13 71 22 74 19 10 -9 -68 -84 -188 -180
-63 -51 -142 -121 -174 -156 -60 -64 -119 -140 -113 -145 1 -2 70 13 152 31
184 42 182 42 156 8 -114 -148 -181 -310 -181 -433 l0 -55 34 63 c19 35 47 80
62 100 36 48 137 148 165 163 24 13 26 17 -32 -74 -135 -209 -217 -580 -178
-804 13 -75 11 -76 85 59 l46 83 -6 -55 c-20 -213 -15 -367 18 -525 l12 -60
33 85 c40 104 51 117 51 62 0 -55 43 -277 75 -381 13 -45 22 -87 19 -95 -3 -8
15 -18 55 -29 41 -12 64 -24 72 -39 14 -26 27 -38 54 -54 11 -6 21 -24 23 -40
1 -16 15 -101 29 -189 l27 -160 -17 -210 c-9 -115 -20 -274 -23 -353 l-7 -143
-24 6 c-14 3 -43 18 -66 32 -23 15 -60 38 -82 51 -56 35 -205 190 -205 213 0
10 -6 18 -12 16 -7 -1 -12 6 -10 16 2 9 -2 17 -8 17 -6 0 -8 4 -5 10 3 5 -1
22 -9 38 -24 47 -47 160 -52 262 -2 58 -1 87 4 75 8 -17 10 -15 15 15 4 19 15
57 25 83 l19 48 12 -56 c8 -36 22 -64 36 -77 14 -12 21 -27 18 -36 -5 -10 -2
-13 6 -8 7 5 17 1 24 -8 8 -10 33 -16 80 -18 55 -2 66 -6 61 -18 -4 -8 -9 -48
-12 -88 -6 -85 17 -162 46 -157 9 2 41 6 70 10 53 7 58 13 53 60 -1 11 3 56
10 101 l12 81 -57 118 c-40 81 -73 134 -108 171 -75 79 -134 96 -232 67 -14
-4 -18 -1 -13 10 3 8 0 18 -7 20 -10 4 -12 -1 -9 -16 3 -16 2 -18 -5 -9 -6 10
-15 -3 -31 -45 -142 -384 32 -822 394 -989 l73 -34 7 -67 c10 -99 31 -213 45
-248 l13 -30 6 25 c6 20 10 11 25 -50 25 -103 81 -206 177 -325 45 -55 105
-131 135 -170 29 -38 72 -90 94 -115 l41 -45 -4 32 c-5 42 4 42 38 -3 20 -26
30 -32 36 -23 5 9 17 4 46 -22 21 -19 75 -59 120 -89 l82 -54 -36 -50 c-20
-28 -42 -57 -48 -64 -10 -11 -65 -15 -226 -18 -250 -5 -430 -19 -498 -40 -81
-24 -128 -90 -146 -205 -5 -32 -11 -39 -50 -54 -68 -25 -126 -108 -174 -245
-18 -53 -24 -59 -165 -165 -183 -139 -301 -241 -425 -371 -200 -207 -306 -437
-556 -1204 -75 -231 -232 -675 -259 -736 -12 -26 -19 -31 -39 -27 -39 8 -86
-23 -108 -70 -15 -34 -19 -66 -19 -170 l0 -129 -57 -54 -58 -54 350 0 350 1
-35 29 c-45 38 -34 38 30 0 l51 -30 1324 0 1325 0 0 698 c0 700 5 910 36 1492
l17 315 -27 65 c-63 153 -200 489 -218 535 -11 28 -24 54 -29 59 -5 6 -9 14
-9 18 0 5 35 -27 79 -70 132 -133 279 -217 468 -269 87 -25 115 -28 253 -28
168 0 255 16 377 70 72 32 185 104 234 147 25 23 32 23 19 -1 -5 -11 -41 -98
-80 -193 -38 -95 -81 -197 -95 -226 -58 -120 -57 -37 -25 -1252 5 -223 13
-620 17 -883 l6 -477 1341 2 1341 3 56 36 c30 20 66 40 80 44 13 3 -4 -11 -39
-33 -34 -22 -65 -42 -69 -46 -3 -3 153 -6 348 -6 l354 1 -58 52 -57 52 0 118
c0 145 -12 199 -53 233 -25 21 -38 25 -68 21 -36 -5 -37 -4 -52 42 -9 25 -65
189 -126 364 -61 175 -140 412 -177 528 -68 216 -148 440 -204 570 -48 111
-138 287 -170 333 -44 65 -226 251 -335 345 -96 83 -287 226 -331 249 -13 7
-35 46 -58 100 -55 133 -100 192 -164 217 -50 19 -52 21 -52 60 -1 48 -31 120
-68 158 -50 52 -195 75 -487 78 -99 1 -206 4 -237 7 -52 4 -60 8 -77 37 -10
17 -26 43 -35 58 l-18 26 89 57 c48 31 107 72 130 90 25 21 43 29 45 22 2 -6
23 9 47 33 39 40 42 42 37 17 -3 -14 -9 -34 -12 -45 -13 -35 106 94 231 252
139 177 199 283 230 407 18 74 20 77 30 51 11 -27 12 -25 28 40 10 37 20 102
23 145 8 112 11 121 42 128 60 15 178 84 232 137 77 74 162 191 173 235 7 31
-8 19 -24 -20 -32 -79 -183 -220 -296 -278 -49 -25 -89 -48 -91 -52 -14 -32
-20 23 -25 235 -3 133 -11 299 -17 369 -13 131 -12 144 25 388 14 94 19 109
48 138 32 34 119 82 147 82 12 0 23 32 48 133 33 136 72 349 72 395 0 39 18 8
26 -46 3 -23 10 -44 14 -47 14 -9 59 213 71 350 6 77 9 190 6 250 -7 125 1
122 44 -12 12 -40 26 -70 29 -68 12 8 29 116 36 230 22 363 -109 718 -364 984
-34 36 -60 67 -57 69 8 8 94 -38 153 -83 86 -65 165 -166 235 -299 l58 -111
-5 75 c-9 121 -33 219 -80 315 -105 218 -301 386 -508 435 l-73 17 98 18 c64
11 127 16 182 13 47 -2 83 -2 80 0 -13 13 -131 32 -205 32 -86 0 -203 -22
-227 -42 -26 -22 -25 2 2 37 37 50 97 91 169 118 58 21 59 22 28 25 -62 6
-140 -25 -198 -80 l-53 -50 6 104 c7 134 -18 243 -87 383 -47 95 -117 202
-126 192 -2 -2 12 -38 31 -80 19 -41 42 -102 51 -134 23 -82 30 -268 13 -343
-12 -55 -29 -81 -29 -45 0 22 -95 209 -142 279 -84 127 -230 288 -328 363
-130 100 -398 268 -408 258 -2 -2 25 -39 60 -82 62 -75 148 -195 148 -206 0
-2 -55 23 -122 57 -137 69 -262 112 -456 156 -137 32 -312 60 -372 60 -31 0
-26 -5 52 -40 49 -22 92 -40 98 -40 5 0 10 -4 10 -8 0 -4 -35 -5 -77 -1 -43 5
-150 13 -238 19 -177 12 -442 48 -607 84 -60 12 -108 21 -108 20z m1152 -444
c55 -12 158 -48 176 -63 10 -8 9 -13 -3 -27 -20 -23 -19 -42 5 -68 l21 -22
-24 0 c-12 0 -49 7 -80 15 -76 20 -88 19 -80 -2 4 -10 9 -20 12 -23 11 -10 31
-50 31 -62 0 -8 -10 -18 -22 -23 -12 -6 -23 -17 -26 -25 -3 -12 -2 -12 6 -1
12 17 24 -1 16 -23 -3 -9 -8 -16 -10 -16 -1 0 -42 16 -90 35 -88 36 -113 40
-149 26 -17 -7 -11 -13 40 -36 99 -44 109 -48 124 -46 8 1 10 -2 5 -10 -5 -9
-2 -10 9 -6 10 3 17 2 17 -4 0 -6 4 -8 9 -5 5 3 20 -3 32 -14 21 -18 22 -19 4
-14 -13 4 -2 -11 28 -41 55 -55 54 -69 -1 -33 -52 35 -145 82 -138 70 3 -6 0
-12 -6 -14 -8 -3 -2 -14 17 -31 l30 -26 -29 3 c-26 3 -32 -2 -56 -48 l-26 -51
-48 3 c-36 1 -63 -5 -102 -24 -55 -27 -64 -40 -41 -63 19 -20 -45 -7 -187 41
-67 22 -148 45 -181 51 -41 8 -60 17 -60 27 0 10 -17 18 -53 25 -29 6 -50 14
-46 18 4 4 -2 7 -14 7 -16 0 -20 4 -15 18 10 25 60 73 75 71 32 -4 36 2 31 40
l-5 39 71 33 c67 31 87 52 59 62 -21 6 12 39 34 34 33 -9 19 11 -19 26 -90 38
86 1 236 -49 88 -29 89 -29 60 -4 -21 17 -22 19 -6 20 10 0 15 -5 12 -11 -5
-7 5 -9 26 -7 31 3 34 6 34 36 1 17 -4 32 -10 32 -13 0 -36 36 -28 44 4 3 28
6 54 6 26 0 59 4 73 10 14 5 56 12 93 15 82 7 117 14 110 21 -3 3 -9 6 -14 7
-25 3 -98 36 -101 46 -2 7 10 11 30 11 26 0 30 3 18 11 -12 8 -11 9 5 5 11 -3
41 -10 67 -16z m-887 -587 c50 -14 124 -38 165 -54 41 -15 120 -44 174 -64 55
-20 111 -43 125 -51 l26 -15 -35 5 c-19 3 -55 10 -80 15 -40 8 -43 8 -25 -5
18 -13 17 -14 -13 -14 -32 0 -43 -13 -19 -24 6 -3 3 -4 -8 -1 -14 3 -34 -7
-65 -35 -24 -22 -48 -40 -52 -40 -16 0 -7 -20 10 -21 11 -1 9 -4 -8 -9 -14 -4
-87 -8 -162 -9 -129 -1 -138 -2 -138 -20 0 -15 5 -18 23 -13 18 4 20 3 10 -9
-9 -11 -30 -13 -105 -8 -89 6 -235 40 -193 45 11 2 51 6 89 9 46 5 64 10 55
16 -8 5 -10 9 -5 9 6 0 1 7 -10 15 -18 14 -18 14 6 15 28 0 67 20 41 20 -30 0
3 15 44 20 6 0 1 7 -9 15 -17 13 -18 15 -3 15 22 0 22 9 0 25 -15 11 -14 13 8
20 23 8 22 9 -15 19 -71 20 -51 44 39 47 22 1 32 3 22 6 -10 3 -16 10 -14 16
2 7 -2 20 -11 29 -12 15 -13 20 -2 34 12 13 11 17 -1 25 -18 12 17 5 136 -28z
m-523 -654 c-2 -14 11 -18 80 -24 142 -11 233 -35 211 -56 -10 -10 -111 -39
-135 -39 -24 0 -23 15 3 39 l21 19 -48 7 c-52 7 -110 18 -184 34 -25 5 -70 7
-100 4 -77 -8 -57 5 31 22 94 17 125 15 121 -6z m3098 -62 c18 -15 20 -69 3
-80 -7 -4 -13 -19 -13 -32 0 -30 -24 -33 -52 -8 -25 22 -23 4 7 -48 31 -56 22
-77 -25 -60 -40 13 -43 14 -36 2 11 -18 -40 3 -83 33 l-44 31 27 9 c15 6 26
18 26 28 0 10 5 15 13 12 8 -3 18 6 25 21 8 16 8 25 1 25 -6 0 -8 4 -4 9 3 5
-5 17 -17 26 -25 19 -32 19 100 -1 40 -6 42 -6 42 20 0 29 7 32 30 13z m-741
-253 c-13 -15 -19 -28 -14 -30 45 -17 139 -74 137 -83 -1 -7 3 -11 10 -9 7 1
26 -10 41 -26 20 -20 23 -26 10 -21 -55 22 -54 14 5 -46 137 -138 277 -356
290 -451 l5 -42 -32 37 c-18 20 -37 37 -41 37 -5 0 0 -25 11 -57 33 -98 87
-331 129 -557 39 -211 46 -266 35 -266 -3 0 -56 25 -118 56 -61 31 -130 63
-152 71 -50 18 -231 53 -265 52 -29 -1 -29 -1 94 -25 43 -8 99 -22 125 -31 60
-20 283 -125 277 -130 -2 -3 -73 25 -158 60 -84 36 -171 70 -193 76 -59 15
-195 41 -230 43 -23 1 -20 3 15 8 30 5 8 7 -65 5 -82 -2 -95 -1 -50 4 l60 8
-70 1 c-98 3 -268 -10 -255 -18 7 -4 -12 -6 -42 -4 -40 3 -47 1 -28 -5 18 -7
9 -8 -35 -6 -40 3 -50 2 -30 -3 29 -8 29 -8 -15 -15 -71 -12 -218 -88 -304
-157 -60 -47 -74 -56 -58 -33 52 73 144 134 267 175 86 30 74 38 -16 12 -77
-23 -165 -77 -230 -140 l-55 -55 -93 27 c-83 24 -105 26 -204 22 -81 -4 -131
-12 -179 -29 l-67 -23 -58 55 c-159 150 -261 179 -663 184 -135 2 -227 0 -205
-3 36 -6 31 -8 -55 -20 -144 -19 -201 -37 -376 -118 -89 -41 -164 -74 -168
-74 -3 0 -6 5 -6 10 0 6 7 10 15 10 8 0 79 31 157 69 134 65 198 85 358 115
14 3 -4 3 -40 0 -124 -9 -196 -30 -337 -103 -75 -39 -138 -69 -139 -68 -2 1
15 90 38 197 22 107 42 206 45 220 23 112 69 290 95 360 26 72 50 171 32 132
-3 -6 -11 -9 -16 -6 -6 4 -8 2 -4 -4 6 -11 -11 -28 -20 -19 -22 22 143 276
169 260 6 -3 7 -1 3 5 -4 6 5 22 20 34 15 13 32 28 38 35 8 8 16 7 30 -5 11
-10 16 -12 13 -6 -10 18 40 61 71 62 35 0 42 -12 42 -78 1 -116 40 -233 100
-298 32 -34 40 -27 40 34 0 143 82 324 203 446 9 10 17 14 17 8 0 -5 -9 -19
-20 -30 -22 -22 -25 -36 -10 -45 6 -3 7 1 4 9 -4 9 -1 16 6 16 8 0 11 -11 8
-30 -3 -21 0 -30 10 -30 9 0 12 -6 8 -15 -4 -13 -2 -13 14 -5 31 16 33 30 6
30 -14 0 -26 4 -26 8 0 4 23 7 50 6 28 -2 48 1 45 6 -3 5 3 8 12 8 30 -1 75
21 67 33 -4 7 0 9 14 5 12 -4 26 -1 35 9 9 9 17 11 19 4 2 -6 14 -5 33 5 17 9
42 16 57 16 15 0 30 5 33 10 3 6 26 10 51 10 31 0 44 4 44 14 0 18 26 27 55
20 13 -3 30 -2 37 2 9 6 2 11 -22 16 -42 8 43 4 205 -11 199 -18 280 -18 279
-1 -1 13 17 15 119 12 144 -4 171 1 164 29 -5 18 -1 19 101 13 75 -4 127 -2
173 8 47 10 71 11 83 3 12 -7 19 -6 26 5 5 8 10 11 10 7 0 -5 -22 -34 -48 -65
-63 -74 -124 -162 -113 -162 5 0 53 25 107 56 217 123 375 191 448 193 l29 1
-24 -26z m458 -36 c63 -23 103 -46 103 -58 0 -5 -9 -6 -19 -3 -17 4 -19 1 -14
-36 5 -39 -7 -56 -22 -31 -13 22 -25 8 -25 -29 0 -40 -13 -61 -25 -40 -4 5
-14 8 -22 5 -8 -3 -11 -2 -8 3 3 5 -4 12 -15 16 -28 9 -25 25 4 25 49 0 40 69
-18 138 -34 39 -22 41 61 10z m-2558 -1419 c48 -7 122 -22 166 -35 44 -13 98
-26 120 -30 22 -3 60 -16 85 -27 25 -12 48 -21 51 -21 3 -1 22 -14 42 -30 118
-94 135 -368 34 -571 -102 -206 -270 -348 -462 -389 -38 -8 -59 -15 -45 -16
19 -2 16 -4 -15 -12 -22 -5 -78 -7 -125 -4 -161 12 -267 50 -387 140 -95 72
-206 205 -171 206 8 1 6 6 -6 15 -11 8 -17 15 -13 15 3 0 -5 24 -19 53 -56
123 -81 357 -49 463 15 53 73 143 60 94 l-6 -25 20 25 c14 18 16 27 8 33 -7 5
-2 5 12 2 16 -5 21 -4 17 4 -4 6 0 12 11 13 10 0 23 2 30 2 7 1 18 7 25 14 6
6 15 12 20 12 4 0 31 11 60 25 29 13 85 31 123 39 86 18 298 20 414 5z m2266
-19 c120 -26 174 -51 220 -101 99 -110 119 -270 59 -477 -29 -102 -77 -192
-146 -279 -57 -72 -105 -113 -191 -160 -34 -19 -54 -32 -44 -29 27 8 20 -2
-12 -19 -124 -64 -428 -61 -548 5 -36 20 -34 21 12 5 11 -4 -13 11 -52 33 -40
21 -88 51 -108 66 -51 39 -137 150 -183 236 -61 114 -76 175 -76 315 0 189 37
260 175 330 38 19 69 33 69 30 0 -2 12 0 28 6 27 11 121 29 177 34 17 2 71 10
120 19 128 21 368 15 500 -14z m-1459 -192 c4 -7 4 -10 -1 -6 -4 4 -20 -3 -35
-15 -15 -12 -36 -27 -46 -34 -18 -12 -18 -12 1 -6 11 3 32 15 48 25 30 21 36
18 11 -6 -8 -9 -11 -16 -5 -16 5 0 13 5 16 10 4 6 11 8 16 5 5 -4 29 -3 54 1
38 5 44 9 34 21 -7 8 -8 13 -3 12 5 -2 23 1 40 5 27 6 39 2 81 -30 l50 -37 6
-106 c20 -345 223 -650 509 -766 103 -41 186 -57 305 -57 139 0 223 21 378 93
39 18 75 33 82 33 19 2 151 135 165 167 7 16 16 29 20 29 5 0 8 5 8 11 0 6 7
17 15 26 8 8 13 19 10 24 -4 5 -2 9 3 9 11 0 36 51 33 69 -1 7 2 10 7 7 6 -3
17 12 25 33 18 45 56 198 58 232 4 72 18 -75 18 -188 2 -391 -100 -694 -291
-867 -72 -65 -206 -137 -300 -160 -54 -14 -75 -15 -112 -5 -49 12 -46 7 -81
134 -21 74 -56 143 -87 172 -44 41 -232 114 -383 149 -78 18 -288 21 -343 5
-18 -6 -54 -21 -79 -35 -65 -37 -136 -56 -180 -49 -21 3 -73 24 -115 45 -133
67 -236 72 -463 22 -138 -30 -307 -103 -343 -148 -26 -33 -59 -120 -73 -190
-5 -28 -12 -61 -14 -73 -10 -45 -96 -55 -196 -22 -110 36 -198 89 -274 164
-132 131 -209 287 -245 500 -21 120 -44 393 -38 440 3 27 5 25 21 -25 69 -220
199 -401 354 -491 35 -20 59 -40 55 -44 -4 -5 -2 -5 4 -2 6 4 35 -3 65 -13
135 -50 334 -65 471 -36 75 16 194 69 262 115 106 73 215 211 274 346 51 117
72 209 79 343 6 113 8 124 27 132 12 5 36 20 55 34 41 30 38 29 47 14z m96
-1207 c14 -46 76 -111 144 -152 l55 -34 -58 -14 c-77 -19 -335 -20 -317 -1 3
2 -9 9 -27 15 l-32 11 54 31 c94 54 157 130 160 193 1 20 2 21 6 5 2 -11 9
-35 15 -54z m-443 -197 c33 -10 71 -14 99 -11 25 3 86 -2 136 -10 113 -19 315
-21 376 -4 24 7 87 14 140 16 55 1 112 9 136 18 41 15 106 13 231 -8 35 -6 53
-41 53 -104 0 -77 -105 -203 -202 -242 -65 -27 -108 -23 -181 15 -35 18 -75
36 -89 39 -13 4 -58 29 -99 57 l-74 50 -95 0 c-88 0 -99 -2 -131 -26 -19 -14
-59 -37 -89 -51 -30 -15 -75 -39 -100 -54 -112 -68 -197 -57 -298 36 -33 30
-63 51 -67 47 -5 -4 -5 -2 -1 5 3 6 -3 27 -14 45 -24 39 -28 134 -6 163 10 14
36 22 107 30 52 7 99 11 104 9 6 -1 34 -10 64 -20z m-86 -1634 c31 -11 65 -20
75 -20 10 0 22 -4 28 -9 13 -13 98 -26 91 -14 -4 6 4 8 19 5 16 -3 23 -9 20
-18 -3 -9 2 -14 14 -14 34 0 35 1 34 16 -1 11 14 14 78 14 70 0 79 -2 76 -17
-3 -15 4 -18 40 -16 33 1 42 -2 42 -15 0 -15 2 -15 10 -2 9 13 10 13 10 0 0
-13 1 -13 10 0 9 13 10 13 10 0 0 -13 1 -13 10 0 9 13 10 13 10 0 0 -12 2 -12
9 -1 6 9 10 10 16 2 4 -8 11 -9 18 -3 7 5 20 8 29 7 10 -2 20 1 24 6 3 5 11 9
17 9 7 0 6 -4 -3 -10 -27 -17 109 1 229 31 103 26 160 49 121 49 -7 0 -11 3
-8 6 4 3 16 1 27 -6 16 -8 27 -8 44 1 12 6 4 -5 -18 -25 -55 -49 -195 -120
-291 -148 -68 -19 -102 -23 -244 -22 -151 0 -172 2 -253 27 -104 32 -225 89
-281 132 -23 17 -51 37 -61 43 -29 17 -16 15 48 -8z m2077 -120 c37 0 38 -1
59 -57 19 -53 41 -156 86 -405 15 -80 15 -90 1 -110 -20 -28 -20 -92 -2 -183
8 -38 22 -164 31 -280 17 -227 19 -237 46 -275 15 -20 20 -52 25 -170 4 -100
11 -152 21 -168 18 -28 10 -57 -13 -48 -9 4 -23 1 -32 -6 -13 -12 -14 -10 -3
10 7 13 9 27 5 30 -4 4 -8 2 -10 -3 -2 -6 -22 -9 -44 -7 -22 2 -47 -1 -54 -7
-11 -9 -15 -5 -20 24 -8 41 -90 719 -117 965 -12 110 -63 466 -84 589 -8 46
-15 87 -15 92 0 9 48 18 68 12 8 -1 31 -3 52 -3z m-3773 -16 c3 -8 -6 -64 -21
-122 -54 -222 -87 -391 -112 -577 -8 -60 -21 -146 -28 -190 -13 -72 -19 -114
-42 -277 -3 -27 -10 -48 -14 -48 -5 0 -7 8 -5 18 2 9 6 67 9 127 10 200 33
380 87 685 21 119 78 379 86 393 8 13 33 7 40 -9z m116 -9 c20 -4 37 -11 37
-15 0 -5 -18 -80 -39 -167 -22 -87 -47 -201 -57 -253 -10 -58 -23 -103 -34
-115 -29 -32 -48 -130 -48 -252 0 -98 -3 -117 -22 -148 -21 -34 -22 -43 -15
-173 10 -215 10 -259 -2 -274 -6 -7 -15 -42 -19 -76 -4 -42 -10 -60 -17 -53
-5 5 -15 7 -22 5 -7 -3 -15 5 -19 18 -5 19 -8 21 -17 8 -15 -21 -4 363 16 555
22 216 81 590 115 730 15 66 31 132 34 147 14 63 25 80 49 75 12 -3 39 -9 60
-12z m617 7 c0 -5 -11 -69 -24 -143 -31 -169 -44 -252 -56 -359 -5 -47 -27
-220 -49 -385 -22 -165 -47 -367 -55 -450 -32 -295 -42 -339 -73 -313 -10 8
-13 7 -13 -3 0 -11 -13 -13 -50 -11 -33 3 -50 0 -50 -8 0 -21 -24 -38 -35 -26
-17 20 -16 35 4 74 14 29 19 66 23 172 4 119 7 140 26 165 22 31 29 76 52 332
6 67 20 172 30 233 18 103 19 113 4 151 -14 35 -15 50 -4 117 19 123 77 384
95 425 l15 37 80 0 c44 0 80 -4 80 -8z m3739 -142 c58 -253 122 -750 120 -935
-1 -92 -3 -101 -9 -55 -4 30 -12 64 -18 75 -6 11 -20 101 -32 200 -32 270 -85
586 -126 747 -13 53 -24 99 -24 102 0 7 44 13 51 7 4 -4 20 -67 38 -141z
m-880 -125 c12 -82 28 -193 36 -245 8 -52 17 -120 21 -150 3 -30 12 -100 20
-155 14 -99 46 -415 64 -635 6 -63 12 -124 15 -135 3 -11 8 -86 11 -166 7
-150 1 -216 -17 -188 -5 7 -8 21 -8 29 0 10 3 8 9 -5 7 -17 9 -15 8 10 0 43
-12 78 -26 81 -7 1 -8 0 -2 -3 23 -11 7 -19 -40 -19 -27 1 -50 4 -50 8 0 4 -7
5 -15 2 -20 -8 -22 -164 -2 -165 6 0 45 -1 85 -2 51 -1 72 -5 72 -14 0 -9 -20
-13 -70 -14 -38 -1 -76 -2 -82 -3 -15 -1 -21 -101 -10 -155 l7 -34 93 2 c70 2
92 -1 92 -11 0 -10 -25 -14 -93 -16 -50 -2 -93 -4 -94 -5 -1 -1 -3 -43 -4 -92
l-2 -90 64 -6 64 -6 -62 -1 c-69 -2 -67 0 -63 -73 1 -21 -3 -40 -9 -44 -11 -6
-14 45 -11 187 1 36 -2 81 -5 100 l-6 33 -105 -3 -104 -3 4 -92 c2 -51 0 -141
-4 -202 l-7 -110 -2 105 c-1 58 -2 149 -1 202 l1 98 -105 0 -106 0 0 -95 0
-95 98 -2 97 -2 -97 -3 -98 -4 0 -114 c0 -63 -3 -115 -7 -115 -5 0 -9 51 -11
113 -1 61 -4 139 -5 172 -2 33 -4 80 -5 105 l-2 45 -100 -3 -100 -3 -2 -57 c0
-31 0 -111 1 -177 2 -126 -10 -151 -19 -37 l-5 67 -77 0 c-47 0 -78 4 -78 10
0 6 31 10 77 10 56 0 78 3 77 13 -1 6 -2 48 -2 92 l-2 80 -65 0 -65 0 -1 -32
c0 -27 -2 -29 -8 -13 -10 24 -19 190 -26 485 -3 118 -10 366 -15 550 -5 184
-10 406 -10 494 0 147 1 158 18 150 9 -5 44 -9 77 -10 33 -1 110 -3 170 -5 61
-2 112 -6 115 -11 3 -4 66 -12 140 -18 74 -6 137 -15 138 -20 2 -6 14 -10 27
-10 26 0 27 3 64 145 23 88 44 204 61 335 6 47 16 114 22 150 l12 65 12 -60
c7 -33 22 -127 33 -210z m809 113 c17 -73 36 -164 43 -203 6 -38 17 -101 24
-140 8 -38 16 -97 20 -130 3 -33 15 -136 25 -230 39 -350 50 -553 30 -540 -6
4 -10 -5 -10 -20 0 -14 -8 -35 -18 -45 -16 -18 -20 -18 -38 -5 -18 14 -18 14
6 15 22 1 23 2 7 11 -10 6 -25 8 -33 5 -8 -3 -14 -1 -14 3 0 5 -3 18 -6 28 -5
15 -4 15 5 3 14 -20 14 -10 -3 36 -10 30 -12 79 -8 201 4 143 3 166 -13 200
-15 30 -19 65 -20 168 -1 72 -7 142 -13 158 -7 16 -12 37 -12 48 0 11 -9 32
-19 47 -11 15 -24 59 -31 97 -6 39 -26 140 -45 226 -19 86 -35 163 -35 172 0
18 18 24 81 26 l46 1 31 -132z m-3539 -33 c17 -150 49 -330 74 -420 21 -74 25
-80 51 -83 15 -2 35 3 45 12 9 8 25 14 35 12 11 -1 56 4 100 11 85 15 124 18
345 28 74 3 138 8 144 12 6 4 8 -43 4 -138 -3 -79 -11 -322 -16 -539 -14 -504
-30 -829 -42 -853 -13 -24 -68 -57 -96 -57 -12 0 -38 16 -59 35 -36 34 -37 36
-31 91 4 43 3 54 -6 45 -6 -6 -44 -11 -89 -11 l-78 0 0 -94 0 -95 108 -1 c59
0 127 -1 152 -3 25 -1 55 2 68 6 17 6 22 5 22 -7 0 -13 -12 -16 -60 -16 l-60
0 0 -34 c0 -18 -3 -61 -6 -95 l-7 -61 59 -2 59 -2 -57 -3 -58 -4 0 -116 c0
-64 -3 -113 -6 -110 -4 3 -8 68 -9 144 -1 76 -2 171 -3 211 l-2 73 -102 -3
-103 -3 0 -90 0 -90 100 -6 100 -5 -102 -2 -103 -2 0 -116 c0 -78 -3 -113 -11
-109 -6 4 -10 47 -9 108 1 56 1 150 1 210 l-1 107 -105 0 -105 0 0 -215 c0
-137 -4 -215 -10 -215 -10 0 -13 105 -10 332 l1 98 -105 0 -104 0 -7 -86 c-4
-47 -4 -89 1 -94 5 -5 47 -11 94 -13 l85 -3 -92 -2 -93 -2 0 -71 c0 -40 -4
-68 -9 -64 -5 3 -10 78 -10 166 0 89 -2 163 -4 165 -2 2 -40 4 -85 5 -45 1
-82 5 -82 10 0 11 3 11 97 9 l72 -1 3 95 c3 108 7 105 -86 102 -56 -1 -56 -1
-56 29 0 20 3 26 9 17 5 -9 26 -12 59 -11 l52 3 -2 75 c-2 76 -2 76 -5 14 -3
-44 -8 -63 -20 -67 -13 -5 -13 -4 -4 8 9 11 6 23 -16 55 -25 39 -28 40 -35 21
-4 -12 -6 -26 -2 -31 3 -5 -1 -9 -10 -9 -10 0 -15 15 -18 59 -4 75 0 91 20 91
11 0 13 3 6 8 -12 7 -12 145 0 232 3 25 8 68 11 95 12 138 56 527 65 580 6 33
17 114 26 180 27 216 74 528 89 595 2 8 4 20 5 25 3 32 19 -34 29 -120z m-969
46 c0 -17 -9 -79 -20 -138 -11 -59 -24 -137 -30 -173 -6 -36 -15 -81 -20 -100
-16 -59 -60 -396 -80 -610 -10 -106 -13 -117 -38 -137 -15 -13 -31 -22 -36
-20 -5 2 -19 32 -31 68 -12 35 -32 83 -44 106 -11 23 -21 47 -21 52 0 12 -19
55 -138 309 -47 100 -85 189 -85 197 0 8 -5 13 -11 12 -6 -1 -12 8 -14 21 -4
24 50 82 120 129 20 14 44 36 53 49 10 15 25 24 42 24 14 0 35 10 47 23 12 13
28 26 36 30 8 4 33 19 55 32 l40 24 -37 -6 c-21 -3 -38 -3 -38 0 0 4 17 15 38
26 20 11 64 40 97 65 74 56 115 62 115 17z m4650 -9 c13 0 30 -8 36 -16 6 -9
14 -13 17 -10 11 12 56 -27 50 -43 -5 -12 -2 -15 10 -10 9 3 17 2 17 -2 0 -5
7 -12 16 -15 8 -3 12 -2 9 4 -12 19 2 10 43 -29 22 -21 38 -41 36 -44 -3 -3 5
-8 18 -13 22 -6 44 -29 61 -64 4 -9 6 -3 3 15 l-4 30 24 -30 c13 -16 24 -35
24 -42 0 -6 22 -19 48 -27 49 -16 122 -74 122 -95 0 -6 -16 5 -35 25 -25 25
-42 35 -55 31 -11 -3 -18 -1 -14 4 3 5 -9 9 -25 9 -17 0 -31 -4 -31 -10 0 -5
7 -7 15 -4 10 4 15 0 15 -15 0 -12 18 -39 40 -61 22 -22 40 -44 40 -50 0 -14
37 -12 44 3 3 6 4 0 1 -14 -3 -15 -20 -53 -39 -85 -19 -33 -94 -176 -167 -319
-72 -143 -136 -266 -141 -272 -16 -20 -68 -16 -68 5 0 37 -51 530 -60 582 -11
63 -18 108 -31 200 -5 36 -18 119 -30 185 -26 145 -33 204 -22 190 4 -6 19
-12 33 -13z m562 -552 c-2 -16 -8 -30 -13 -30 -5 0 -9 -4 -9 -10 0 -5 9 -10
20 -10 14 0 20 -7 20 -21 0 -12 8 -23 20 -26 11 -3 17 -9 14 -14 -3 -5 0 -9 5
-9 6 0 12 8 12 18 1 16 2 16 6 0 2 -10 8 -18 12 -18 5 0 17 -30 29 -67 11 -38
26 -88 34 -112 11 -38 18 -46 46 -53 37 -10 44 -31 7 -26 -13 2 -24 0 -25 -4
-2 -34 1 -48 10 -43 5 3 7 0 5 -7 -3 -8 1 -36 10 -63 22 -75 19 -91 -21 -122
-20 -15 -53 -44 -74 -63 -56 -52 -91 -80 -101 -80 -5 0 -27 -11 -49 -25 -22
-14 -46 -25 -54 -25 -8 0 -18 -5 -21 -10 -4 -6 -26 -20 -51 -31 -24 -12 -44
-26 -44 -31 0 -6 -23 -9 -60 -6 -38 3 -60 0 -60 -6 0 -6 -4 -5 -9 2 -6 10 -10
8 -14 -8 -3 -12 -10 -19 -16 -15 -18 11 -12 88 13 168 30 95 35 103 49 82 10
-12 12 -2 12 47 0 63 9 91 80 253 45 103 124 254 150 289 14 18 25 36 25 40 0
6 41 66 45 66 1 0 0 -13 -3 -30z m-5714 -83 c28 -50 61 -119 72 -152 11 -32
26 -68 33 -79 23 -37 84 -196 112 -296 7 -25 25 -75 39 -112 27 -72 40 -154
25 -164 -5 -3 -9 1 -9 8 0 29 -21 38 -52 22 -16 -8 -34 -12 -40 -8 -8 5 -9 2
-5 -10 4 -10 3 -15 -3 -11 -6 3 -10 1 -10 -6 0 -8 -6 -6 -18 4 -10 10 -23 17
-28 17 -5 0 -53 25 -107 55 -54 31 -102 53 -107 50 -4 -3 -10 1 -13 8 -2 6
-31 30 -63 52 -32 22 -70 53 -85 70 -23 25 -29 27 -43 16 -14 -12 -16 -9 -16
31 0 24 11 82 25 128 14 46 23 86 20 88 -3 3 1 12 9 21 8 9 21 39 29 66 9 28
16 40 16 28 1 -12 -4 -34 -9 -49 -13 -33 -9 -38 28 -29 22 4 29 11 28 28 -1
12 5 33 14 47 8 13 14 24 13 25 -1 0 -6 12 -12 28 -8 21 -8 27 3 27 20 0 7 50
-13 51 -12 0 -11 2 4 9 11 4 32 5 48 3 22 -5 27 -2 27 15 0 12 5 24 10 27 6 3
10 15 10 26 0 10 5 19 12 19 9 0 9 3 0 12 -14 14 -16 28 -4 28 5 0 32 -42 60
-93z m1029 25 c-4 -15 -11 -64 -18 -109 l-12 -81 -156 -1 c-86 -1 -172 -4
-192 -7 -20 -4 -39 -2 -43 4 -6 10 9 191 17 198 2 2 85 8 185 12 99 4 190 8
202 9 19 2 21 -2 17 -25z m3818 17 c116 -2 122 -6 130 -76 3 -32 8 -75 10 -96
l5 -38 -199 1 c-178 1 -201 3 -205 18 -12 41 -27 175 -22 189 5 13 21 15 104
9 53 -3 133 -7 177 -7z m73 -405 c36 -7 51 -49 21 -57 -31 -8 -285 -8 -274 0
13 10 18 33 7 33 -5 0 -9 7 -9 15 0 12 19 15 112 15 62 0 126 -3 143 -6z
m-5223 -269 c16 -35 67 -84 140 -134 28 -19 55 -39 60 -46 16 -18 95 -69 172
-111 40 -21 73 -45 73 -53 0 -8 3 -12 6 -8 11 11 39 -26 40 -54 1 -25 0 -27
-20 -16 -11 7 -23 15 -26 19 -9 12 -28 -6 -33 -32 -3 -19 -5 -17 -6 11 -1 31
-6 38 -43 58 -24 12 -50 26 -58 31 -39 24 -105 49 -111 43 -4 -5 -9 -21 -12
-38 -3 -24 -4 -21 -6 13 -1 34 -6 44 -23 52 -35 15 -56 31 -109 82 -37 37 -49
55 -49 78 0 24 -4 30 -21 30 -20 0 -21 4 -15 48 10 65 18 91 23 72 3 -8 11
-29 18 -45z m6269 -10 c9 -57 3 -77 -31 -97 -16 -10 -44 -31 -63 -48 -19 -17
-50 -40 -67 -53 -18 -12 -33 -28 -33 -35 0 -7 -13 -18 -30 -23 -16 -6 -30 -15
-30 -20 0 -5 -4 -9 -10 -9 -5 0 -10 7 -10 15 0 8 -7 15 -15 15 -12 0 -13 -4
-5 -19 14 -27 16 -24 -37 -58 -75 -47 -73 -46 -89 -27 -14 18 -15 18 -5 -1 9
-20 -9 -62 -21 -49 -9 8 -58 -7 -52 -17 3 -5 1 -9 -5 -9 -5 0 -13 5 -16 10 -4
6 -11 8 -16 5 -5 -4 -9 -1 -9 5 0 17 46 70 54 63 3 -3 9 8 12 26 4 18 14 35
23 39 18 7 183 112 218 140 13 9 33 26 46 37 13 11 56 43 95 70 53 37 71 56
72 73 0 38 17 16 24 -33z"/>
<path d="M4000 6600 c-105 -23 -189 -52 -249 -87 -53 -30 -171 -123 -171 -134
0 -10 105 -1 235 21 221 37 407 42 606 15 113 -15 308 -55 342 -70 13 -5 17
-2 17 14 0 33 -54 143 -83 169 -79 73 -495 116 -697 72z"/>
<path d="M6005 6614 c-114 -17 -257 -48 -292 -64 -36 -16 -46 -28 -77 -93 -31
-64 -45 -117 -32 -117 3 0 17 5 33 11 15 6 95 24 178 42 141 29 163 31 375 31
221 1 299 -6 573 -52 26 -5 47 -5 47 0 0 22 -109 110 -181 148 -126 66 -243
91 -434 95 -88 2 -173 1 -190 -1z"/>
<path d="M4195 6214 c-145 -20 -275 -76 -351 -151 -54 -53 -148 -193 -137
-203 4 -4 45 -32 90 -64 45 -31 85 -61 88 -66 4 -6 13 -10 22 -10 14 0 15 2 1
18 -17 19 -48 106 -48 134 0 10 7 21 16 25 8 3 13 12 9 21 -4 11 -2 12 8 4 10
-9 21 -5 48 18 19 16 40 29 47 30 7 0 15 7 18 15 4 8 11 12 17 8 5 -3 15 1 22
10 8 12 11 -9 11 -91 -1 -120 16 -172 77 -232 54 -53 83 -64 177 -63 91 0 135
15 198 68 42 35 74 123 74 203 l1 63 34 -48 c20 -26 46 -70 60 -98 l25 -50 -6
69 c-7 84 -54 191 -109 250 -20 21 -37 40 -37 42 0 8 39 -12 83 -43 52 -36 62
-25 19 22 -46 50 -85 73 -161 94 -71 20 -236 34 -296 25z"/>
<path d="M5995 6214 c-144 -21 -258 -85 -302 -169 l-16 -30 38 33 c32 29 73
52 91 52 3 0 -8 -18 -25 -39 -55 -69 -95 -168 -98 -241 -3 -58 -2 -62 9 -35 6
16 17 36 25 43 7 7 13 16 13 20 0 4 13 21 28 37 16 17 31 37 35 45 3 8 6 -12
6 -46 1 -84 26 -150 76 -199 36 -37 115 -80 100 -55 -8 14 8 13 22 -1 6 -6 19
-9 29 -6 15 4 13 5 -6 7 l-25 2 25 8 25 8 -28 1 c-16 1 -26 5 -23 10 4 5 -4 7
-16 3 -14 -3 -19 -1 -14 6 4 6 -2 17 -14 24 -51 32 -14 47 115 44 65 -1 79 -4
77 -16 -2 -8 -4 -23 -5 -32 -1 -11 -20 -27 -47 -40 l-45 -21 31 -10 c70 -21
179 41 223 128 23 43 26 61 25 145 -1 105 -4 131 -19 143 -6 5 -4 7 5 4 8 -2
14 -9 13 -15 -2 -6 4 -9 12 -6 8 4 15 1 15 -5 0 -7 6 -11 13 -9 18 4 104 -53
118 -79 7 -13 16 -23 21 -23 17 0 7 19 -25 47 -47 41 -58 62 -15 30 19 -15 40
-38 48 -51 16 -31 8 -100 -19 -162 -11 -24 -18 -44 -16 -44 2 0 45 29 96 65
50 36 96 65 100 65 17 0 9 20 -35 87 -86 134 -204 221 -348 257 -67 17 -236
28 -293 20z"/>
<path d="M6137 1043 c-11 -10 -8 -145 2 -138 5 3 12 1 16 -5 8 -13 175 -13
175 -1 0 5 -8 12 -17 14 -17 4 -17 5 0 6 19 1 24 21 5 21 -9 0 -8 4 2 10 12 8
11 10 -7 10 -14 0 -23 6 -23 16 0 14 -1 14 -16 0 -21 -22 -74 -21 -74 0 0 12
-7 15 -30 12 -27 -4 -30 -2 -30 23 0 15 6 30 13 32 6 3 7 6 1 6 -6 1 -14 -2
-17 -6z"/>
<path d="M6369 1000 c-1 -19 -3 -51 -5 -71 l-2 -37 99 -1 c81 -2 99 1 99 13 0
10 -13 16 -37 19 l-38 4 38 1 c24 1 37 7 37 16 0 17 -16 23 -56 22 -21 -1 -30
3 -27 12 4 8 -7 12 -35 12 -23 0 -42 -5 -45 -12 -2 -7 -9 3 -15 22 l-10 35 -3
-35z"/>
<path d="M6202 852 l-74 -3 6 -42 c3 -23 5 -66 5 -94 l1 -53 101 0 102 0 -5
90 c-3 50 -7 92 -9 94 -10 8 -60 11 -127 8z"/>
<path d="M6367 852 c-2 -4 -5 -46 -6 -94 -3 -103 -5 -101 125 -96 l86 3 -4 95
-3 95 -97 2 c-54 0 -99 -2 -101 -5z"/>
<path d="M5932 824 c-4 -56 -22 -101 -44 -112 -53 -25 -67 -24 -99 7 -33 33
-43 26 -37 -26 3 -26 7 -28 62 -35 35 -5 62 -4 66 2 3 5 56 8 118 7 l112 -2 0
70 c0 117 1 115 -94 115 -81 0 -82 0 -84 -26z"/>
<path d="M3848 852 l-88 -3 0 -94 0 -94 93 4 c50 2 98 4 105 4 9 1 12 26 12
90 0 103 8 97 -122 93z"/>
<path d="M4094 852 l-91 -3 -8 -90 c-3 -50 -5 -93 -2 -95 3 -3 51 -2 107 2
l102 7 -4 88 c-3 49 -6 90 -9 91 -2 2 -45 2 -95 0z"/>
<path d="M2093 8123 c-35 -5 -40 -18 -34 -91 3 -41 5 -43 28 -37 21 5 23 4 14
-14 -6 -11 -11 -29 -11 -41 0 -16 -4 -20 -16 -16 -9 3 -14 1 -12 -5 8 -25 29
-9 42 34 3 10 15 17 31 17 28 0 34 16 8 23 -14 4 -13 5 3 6 15 1 28 14 42 41
18 36 18 41 3 39 -25 -4 -72 23 -67 38 3 7 4 12 3 11 -1 0 -16 -3 -34 -5z"/>
<path d="M1450 6203 c-78 -30 -483 -225 -505 -243 -11 -9 -15 -33 -15 -91 0
-74 1 -79 21 -79 12 0 38 -10 58 -22 36 -23 37 -23 491 -23 451 0 455 0 502
23 26 12 54 22 63 22 31 0 41 68 19 141 -5 18 -197 116 -424 218 -125 57 -171
69 -210 54z m115 -117 c62 -17 99 -33 253 -107 110 -53 125 -63 138 -95 8 -20
13 -39 9 -42 -13 -13 -378 -22 -643 -16 -312 7 -309 6 -280 67 12 25 36 43
114 81 138 69 283 125 324 125 19 1 58 -5 85 -13z"/>
<path d="M7570 5959 c7 -11 9 -23 6 -26 -3 -4 -1 -12 5 -19 8 -10 -5 -11 -65
-7 -68 5 -78 3 -119 -21 -62 -36 -108 -92 -157 -194 -67 -137 -72 -157 -59
-218 9 -41 9 -63 -1 -98 -10 -38 -10 -48 4 -67 9 -13 16 -17 16 -10 0 9 8 11
28 6 29 -8 33 -8 76 -2 21 3 32 13 43 38 21 48 12 156 -16 202 l-22 35 23 -6
c21 -5 22 -4 8 13 -14 17 -13 18 5 11 35 -15 125 -20 125 -7 0 6 7 11 15 11
28 0 64 50 71 98 4 26 9 51 11 55 8 14 32 -14 38 -46 4 -18 15 -50 25 -72 32
-70 28 -222 -7 -278 -3 -6 -1 -7 5 -3 7 4 12 2 12 -4 0 -6 5 -8 11 -4 8 4 7 9
-2 15 -9 5 -9 9 -3 9 27 0 46 169 33 295 -9 91 -61 265 -76 255 -4 -3 -8 2 -9
10 0 22 -15 50 -25 50 -6 0 -5 -9 1 -21z"/>
<path d="M1170 5653 c-57 -39 -75 -77 -65 -140 16 -107 122 -147 204 -77 60
50 62 140 6 200 -27 29 -39 34 -76 34 -26 0 -55 -7 -69 -17z"/>
<path d="M1697 5636 c-39 -38 -51 -86 -36 -141 28 -99 141 -126 208 -50 39 45
47 89 26 143 -24 59 -57 82 -116 82 -42 0 -53 -5 -82 -34z"/>
<path d="M1186 5274 c-41 -41 56 -164 172 -217 39 -18 65 -22 152 -22 101 0
108 1 168 34 68 37 144 113 160 160 12 33 6 46 -26 55 -19 6 -25 2 -37 -28
-19 -46 -78 -102 -140 -134 -67 -34 -176 -36 -251 -3 -54 24 -123 87 -145 135
-17 36 -32 42 -53 20z"/>
</g>
</svg>
